REM DIRINDEX 1\2,1\3,1\4
REM DIRNAME folder01,folder02,folder03,folder04
TITLE ""
FILE "DISC2Track30.mp3" MP3
  TRACK 01 AUDIO
    TITLE "0:"
    INDEX 01 00:00:00
  TRACK 02 AUDIO
    TITLE "4:cjc038_1787"
    INDEX 01 00:00:11
  TRACK 03 AUDIO
    TITLE "0:"
    INDEX 01 00:02:67
  TRACK 04 AUDIO
    TITLE "2:cjc038_1788"
    INDEX 01 00:04:35
  TRACK 05 AUDIO
    TITLE "0:"
    INDEX 01 00:07:33
  TRACK 06 AUDIO
    TITLE "2:cjc038_1789"
    INDEX 01 00:07:56
  TRACK 07 AUDIO
    TITLE "0:"
    INDEX 01 00:10:33
  TRACK 08 AUDIO
    TITLE "3:cjc038_1790"
    INDEX 01 00:10:43
  TRACK 09 AUDIO
    TITLE "0:"
    INDEX 01 00:13:30
  TRACK 10 AUDIO
    TITLE "3:cjc038_1791"
    INDEX 01 00:13:67
  TRACK 11 AUDIO
    TITLE "0:"
    INDEX 01 00:16:30
  TRACK 12 AUDIO
    TITLE "2:cjc038_1792"
    INDEX 01 00:18:13
  TRACK 13 AUDIO
    TITLE "0:"
    INDEX 01 00:20:28
  TRACK 14 AUDIO
    TITLE "2:cjc038_1793"
    INDEX 01 00:20:51
  TRACK 15 AUDIO
    TITLE "0:"
    INDEX 01 00:22:30
  TRACK 16 AUDIO
    TITLE "3:cjc038_1794"
    INDEX 01 00:22:34
  TRACK 17 AUDIO
    TITLE "0:"
    INDEX 01 00:24:43
  TRACK 18 AUDIO
    TITLE "3:cjc038_1795"
    INDEX 01 00:25:03
  TRACK 19 AUDIO
    TITLE "0:"
    INDEX 01 00:26:46
  TRACK 20 AUDIO
    TITLE "2:cjc038_1796"
    INDEX 01 00:27:30
  TRACK 21 AUDIO
    TITLE "0:"
    INDEX 01 00:29:36
  TRACK 22 AUDIO
    TITLE "2:cjc038_1797"
    INDEX 01 00:29:54
  TRACK 23 AUDIO
    TITLE "0:"
    INDEX 01 00:31:51
  TRACK 24 AUDIO
    TITLE "3:cjc038_1798"
    INDEX 01 00:31:61
  TRACK 25 AUDIO
    TITLE "0:"
    INDEX 01 00:33:46
  TRACK 26 AUDIO
    TITLE "3:cjc038_1799"
    INDEX 01 00:34:10
  TRACK 27 AUDIO
    TITLE "0:"
    INDEX 01 00:35:70
  TRACK 28 AUDIO
    TITLE "2:cjc038_1800"
    INDEX 01 00:37:54
  TRACK 29 AUDIO
    TITLE "0:"
    INDEX 01 00:39:27
  TRACK 30 AUDIO
    TITLE "2:cjc038_1801"
    INDEX 01 00:39:51
  TRACK 31 AUDIO
    TITLE "0:"
    INDEX 01 00:40:73
  TRACK 32 AUDIO
    TITLE "3:cjc038_1802"
    INDEX 01 00:41:04
  TRACK 33 AUDIO
    TITLE "0:"
    INDEX 01 00:42:39
  TRACK 34 AUDIO
    TITLE "3:cjc038_1803"
    INDEX 01 00:43:03
  TRACK 35 AUDIO
    TITLE "0:"
    INDEX 01 00:44:16
  TRACK 36 AUDIO
    TITLE "2:cjc038_1804"
    INDEX 01 00:44:73
  TRACK 37 AUDIO
    TITLE "0:"
    INDEX 01 00:47:58
  TRACK 38 AUDIO
    TITLE "3:cjc038_1805"
    INDEX 01 00:47:66
  TRACK 39 AUDIO
    TITLE "0:"
    INDEX 01 00:50:37
  TRACK 40 AUDIO
    TITLE "2:cjc038_1806"
    INDEX 01 00:51:22
  TRACK 41 AUDIO
    TITLE "0:"
    INDEX 01 00:53:31
  TRACK 42 AUDIO
    TITLE "3:cjc038_1807"
    INDEX 01 00:53:39
  TRACK 43 AUDIO
    TITLE "0:"
    INDEX 01 00:55:34
  TRACK 44 AUDIO
    TITLE "2:cjc038_1808"
    INDEX 01 00:56:24
  TRACK 45 AUDIO
    TITLE "0:"
    INDEX 01 00:57:58
  TRACK 46 AUDIO
    TITLE "2:cjc038_1809"
    INDEX 01 00:58:09
  TRACK 47 AUDIO
    TITLE "0:"
    INDEX 01 00:59:22
  TRACK 48 AUDIO
    TITLE "3:cjc038_1810"
    INDEX 01 00:59:32
  TRACK 49 AUDIO
    TITLE "0:"
    INDEX 01 01:00:49
  TRACK 50 AUDIO
    TITLE "3:cjc038_1811"
    INDEX 01 01:01:17
  TRACK 51 AUDIO
    TITLE "0:"
    INDEX 01 01:02:14
  TRACK 52 AUDIO
    TITLE "2:cjc038_1812"
    INDEX 01 01:03:00
  TRACK 53 AUDIO
    TITLE "0:"
    INDEX 01 01:06:42
  TRACK 54 AUDIO
    TITLE "3:cjc038_1813"
    INDEX 01 01:06:45
  TRACK 55 AUDIO
    TITLE "0:"
    INDEX 01 01:09:73
  TRACK 56 AUDIO
    TITLE "2:cjc038_1814"
    INDEX 01 01:11:56
  TRACK 57 AUDIO
    TITLE "0:"
    INDEX 01 01:14:55
  TRACK 58 AUDIO
    TITLE "3:cjc038_1815"
    INDEX 01 01:14:68
  TRACK 59 AUDIO
    TITLE "0:"
    INDEX 01 01:17:57
  TRACK 60 AUDIO
    TITLE "2:cjc038_1816"
    INDEX 01 01:18:35
  TRACK 61 AUDIO
    TITLE "0:"
    INDEX 01 01:22:25
  TRACK 62 AUDIO
    TITLE "3:cjc038_1817"
    INDEX 01 01:22:33
  TRACK 63 AUDIO
    TITLE "0:"
    INDEX 01 01:26:15
